<svg width="64" height="64" viewBox="0 0 64 64" fill="none" xmlns="http://www.w3.org/2000/svg">
<path d="M15.9999 5.33333H47.9999C50.8289 5.33333 53.542 6.45713 55.5424 8.45752C57.5428 10.4579 58.6666 13.171 58.6666 16V48C58.6666 50.829 57.5428 53.5421 55.5424 55.5425C53.542 57.5429 50.8289 58.6667 47.9999 58.6667H15.9999C13.1709 58.6667 10.4578 57.5429 8.45745 55.5425C6.45706 53.5421 5.33325 50.829 5.33325 48V16C5.33325 13.171 6.45706 10.4579 8.45745 8.45752C10.4578 6.45713 13.1709 5.33333 15.9999 5.33333V5.33333ZM15.9999 10.6667C14.5854 10.6667 13.2289 11.2286 12.2287 12.2288C11.2285 13.229 10.6666 14.5855 10.6666 16V48C10.6666 49.4145 11.2285 50.771 12.2287 51.7712C13.2289 52.7714 14.5854 53.3333 15.9999 53.3333H47.9999C49.4144 53.3333 50.771 52.7714 51.7712 51.7712C52.7713 50.771 53.3332 49.4145 53.3332 48V16C53.3332 14.5855 52.7713 13.229 51.7712 12.2288C50.771 11.2286 49.4144 10.6667 47.9999 10.6667H15.9999ZM35.7706 32L43.3146 39.5413C43.815 40.0417 44.0961 40.7204 44.0961 41.428C44.0961 42.1356 43.815 42.8143 43.3146 43.3147C42.8142 43.815 42.1356 44.0961 41.4279 44.0961C40.7203 44.0961 40.0416 43.815 39.5413 43.3147L31.9999 35.7707L24.4586 43.3147C23.9582 43.815 23.2796 44.0961 22.5719 44.0961C21.8643 44.0961 21.1856 43.815 20.6853 43.3147C20.1849 42.8143 19.9038 42.1356 19.9038 41.428C19.9038 40.7204 20.1849 40.0417 20.6853 39.5413L28.2293 32L20.6853 24.4587C20.1849 23.9583 19.9038 23.2796 19.9038 22.572C19.9038 21.8644 20.1849 21.1857 20.6853 20.6853C21.1856 20.185 21.8643 19.9038 22.5719 19.9038C23.2796 19.9038 23.9582 20.185 24.4586 20.6853L31.9999 28.2293L39.5413 20.6853C40.0416 20.185 40.7203 19.9038 41.4279 19.9038C42.1356 19.9038 42.8142 20.185 43.3146 20.6853C43.815 21.1857 44.0961 21.8644 44.0961 22.572C44.0961 23.2796 43.815 23.9583 43.3146 24.4587L35.7706 32Z" fill="#D24949"/>
</svg>
