<svg width="80" height="55" viewBox="0 0 80 55" fill="none" xmlns="http://www.w3.org/2000/svg">
<path d="M8 5C13.0485 9.28538 10.0703 10.9472 11.7864 13.0351C13.2332 14.7953 16.2039 14.1064 18.0971 18.9275C21.2524 21.6059 20.1027 22.1465 21.2524 24.2842C21.2524 24.2842 21.2524 26.9626 18.0971 29.641C16.673 30.8498 16.835 34.9977 13.0365 37.1404C9.23813 39.2831 11.7864 40.8901 9.26214 44.6398C8.46656 45.8216 15.5728 44.0187 21.2524 40.3544C22.6541 38.8671 26.301 34.9977 33.1989 34.9977C35.7806 34.9977 37.6602 35.0456 42.7087 32.3193C44.6704 31.0408 45.8532 28.3455 52.1748 29.1053C55.6726 29.5257 60.3786 28.5696 63.534 26.9626C66.4726 25.4659 73 25.6654 73 24.2842C73 22.9426 68.5825 23.5284 63.534 21.6059C58.4854 19.6834 57.8544 18.9275 52.1748 18.9275C48.9455 18.9275 47.3554 18.5317 45.233 17.8562C40.1845 15.7363 36.5302 13.8809 32.472 13.7466C30.0874 13.5708 22.7539 11.1134 21.2524 9.57226C18.7282 7.14269 12.7215 6.82533 8 5Z" fill="#42B4CA"/>
<path d="M21.2524 24.2842H22.2524V24.0324L22.1331 23.8106L21.2524 24.2842ZM8 5L8.36059 4.06728C7.90545 3.89132 7.38978 4.06955 7.14043 4.48899C6.89107 4.90843 6.98085 5.4466 7.35287 5.76238L8 5ZM9.26214 44.6398L10.0917 45.1982L9.26214 44.6398ZM11.7864 13.0351L11.0139 13.6701L11.7864 13.0351ZM18.0971 18.9275L17.1663 19.293L17.2582 19.5271L17.45 19.6899L18.0971 18.9275ZM18.0971 29.641L17.45 28.8786L18.0971 29.641ZM21.2524 9.57226L21.9687 8.87443L21.9575 8.86291L21.9459 8.85176L21.2524 9.57226ZM32.472 13.7466L32.3985 14.7439L32.4187 14.7453L32.4389 14.746L32.472 13.7466ZM45.233 17.8562L44.8459 18.7782L44.8871 18.7955L44.9297 18.809L45.233 17.8562ZM21.2524 40.3544L21.7946 41.1947L21.8967 41.1288L21.9802 41.0403L21.2524 40.3544ZM42.7087 32.3193L43.1839 33.1992L43.2202 33.1796L43.2548 33.1571L42.7087 32.3193ZM52.1748 29.1053L52.0554 30.0981L52.1748 29.1053ZM63.534 26.9626L63.0801 26.0715L63.534 26.9626ZM7.35287 5.76238C9.73284 7.78258 10.0728 9.04296 10.1463 9.92465C10.1674 10.1776 10.1674 10.4226 10.1654 10.698C10.1635 10.9594 10.1593 11.2703 10.1839 11.5806C10.2372 12.2519 10.427 12.956 11.0139 13.6701L12.5589 12.4001C12.2878 12.0702 12.2063 11.7836 12.1776 11.4222C12.1612 11.2161 12.1633 11.0001 12.1653 10.7123C12.1673 10.4384 12.1688 10.1116 12.1394 9.75854C12.0109 8.216 11.3157 6.5028 8.64713 4.23762L7.35287 5.76238ZM11.0139 13.6701C11.5061 14.2689 12.1082 14.6315 12.6659 14.9131C13.2959 15.2312 13.7077 15.3819 14.2853 15.7058C15.2536 16.2486 16.3079 17.1072 17.1663 19.293L19.0279 18.562C17.993 15.9267 16.6154 14.7192 15.2634 13.9612C14.6808 13.6346 13.9603 13.3262 13.5673 13.1278C13.1019 12.8928 12.7901 12.6814 12.5589 12.4001L11.0139 13.6701ZM17.45 19.6899C18.9568 20.969 19.3106 21.6321 19.4801 22.1306C19.5925 22.4611 19.6205 22.6791 19.7509 23.1759C19.869 23.6259 20.0384 24.1381 20.3717 24.7579L22.1331 23.8106C21.8916 23.3615 21.7736 23.0045 21.6853 22.6682C21.6093 22.3787 21.5119 21.8933 21.3736 21.4866C21.0417 20.5107 20.3927 19.5644 18.7442 18.1651L17.45 19.6899ZM18.7442 30.4033C20.4532 28.9527 21.3367 27.475 21.7888 26.3237C22.0137 25.751 22.1296 25.2649 22.1893 24.9105C22.2191 24.7334 22.2349 24.5889 22.2432 24.4828C22.2474 24.4298 22.2497 24.3863 22.2509 24.3529C22.2516 24.3363 22.2519 24.3222 22.2522 24.3107C22.2523 24.305 22.2523 24.2999 22.2524 24.2955C22.2524 24.2932 22.2524 24.2912 22.2524 24.2893C22.2524 24.2884 22.2524 24.2875 22.2524 24.2867C22.2524 24.2862 22.2524 24.2856 22.2524 24.2854C22.2524 24.2848 22.2524 24.2842 21.2524 24.2842C20.2524 24.2842 20.2524 24.2837 20.2524 24.2831C20.2524 24.2829 20.2524 24.2824 20.2524 24.282C20.2524 24.2814 20.2524 24.2807 20.2524 24.2801C20.2524 24.2789 20.2525 24.2778 20.2525 24.2769C20.2525 24.2751 20.2525 24.2739 20.2525 24.2733C20.2525 24.2721 20.2525 24.2734 20.2524 24.277C20.2521 24.2842 20.2513 24.3008 20.2493 24.3262C20.2453 24.3771 20.2365 24.4629 20.217 24.5786C20.178 24.8101 20.0967 25.161 19.9272 25.5927C19.5905 26.4502 18.8963 27.6509 17.45 28.8786L18.7442 30.4033ZM10.0917 45.1982C11.5081 43.0943 11.5167 41.5042 11.6626 40.4209C11.7321 39.9049 11.8228 39.5617 12.0356 39.237C12.2533 38.905 12.6615 38.5001 13.5279 38.0114L12.5452 36.2694C11.5124 36.852 10.8147 37.4515 10.363 38.1406C9.90643 38.837 9.76427 39.5317 9.68048 40.154C9.51981 41.3473 9.54048 42.4356 8.43259 44.0814L10.0917 45.1982ZM13.5279 38.0114C15.7027 36.7845 16.7266 34.9793 17.379 33.4281C17.5407 33.0436 17.6814 32.6701 17.8085 32.3298C17.9381 31.9826 18.05 31.6793 18.1641 31.4028C18.4043 30.8209 18.5868 30.537 18.7442 30.4033L17.45 28.8786C16.8953 29.3494 16.5641 30.0372 16.3154 30.6399C16.185 30.9558 16.0588 31.2981 15.9348 31.6304C15.8082 31.9695 15.6798 32.3093 15.5354 32.6528C14.9631 34.0135 14.1688 35.3535 12.5452 36.2694L13.5279 38.0114ZM21.9459 8.85176C20.4645 7.426 18.0673 6.69228 15.6963 6.09029C13.2165 5.46071 10.6465 4.95101 8.36059 4.06728L7.63941 5.93272C10.075 6.87432 12.8691 7.43597 15.2041 8.02879C17.6478 8.64921 19.516 9.28895 20.559 10.2928L21.9459 8.85176ZM32.5455 12.7493C31.4996 12.6722 29.181 12.0567 26.8676 11.2298C25.7297 10.823 24.6321 10.379 23.7368 9.94866C22.8027 9.49967 22.2088 9.12092 21.9687 8.87443L20.5362 10.2701C21.0468 10.7942 21.9327 11.3005 22.8704 11.7513C23.847 12.2206 25.0133 12.6909 26.1945 13.1131C28.5194 13.9441 31.0598 14.6452 32.3985 14.7439L32.5455 12.7493ZM45.6202 16.9341C40.6855 14.8621 36.7999 12.8893 32.5051 12.7471L32.4389 14.746C36.2605 14.8726 39.6835 16.6105 44.8459 18.7782L45.6202 16.9341ZM52.1748 17.9275C49.0691 17.9275 47.5825 17.5546 45.5363 16.9033L44.9297 18.809C47.1282 19.5089 48.8218 19.9275 52.1748 19.9275V17.9275ZM8.43259 44.0814C8.32638 44.2391 8.13782 44.5797 8.22114 45.0148C8.31592 45.5097 8.68176 45.7591 8.9146 45.8612C9.13783 45.959 9.36573 45.9865 9.53115 45.9956C9.71125 46.0056 9.90276 45.9976 10.0943 45.9797C10.8437 45.9097 11.9148 45.6555 13.1328 45.2671C15.5894 44.484 18.8687 43.0824 21.7946 41.1947L20.7103 39.5141C17.9565 41.2908 14.843 42.6227 12.5253 43.3616C11.3563 43.7344 10.445 43.9383 9.90826 43.9884C9.77828 44.0006 9.69177 44.0015 9.6419 43.9987C9.57737 43.9951 9.62338 43.9882 9.71735 44.0294C9.82092 44.0747 10.1101 44.2453 10.1854 44.6386C10.2493 44.972 10.0984 45.1882 10.0917 45.1982L8.43259 44.0814ZM21.9802 41.0403C23.3374 39.6002 26.7331 35.9977 33.1989 35.9977V33.9977C25.8689 33.9977 21.9709 38.1341 20.5247 39.6686L21.9802 41.0403ZM33.1989 35.9977C34.48 35.9977 35.7039 36.0132 37.2538 35.6552C38.7967 35.2989 40.6162 34.5858 43.1839 33.1992L42.2336 31.4394C39.7527 32.7791 38.1082 33.4052 36.8037 33.7065C35.5062 34.0062 34.4995 33.9977 33.1989 33.9977V35.9977ZM43.2548 33.1571C43.8191 32.7893 44.3325 32.3154 44.7812 31.9267C45.253 31.518 45.7194 31.1401 46.292 30.8223C47.3996 30.2077 49.0539 29.7374 52.0554 30.0981L52.2941 28.1124C48.9741 27.7134 46.8761 28.2109 45.3216 29.0735C44.5631 29.4944 43.9708 29.9826 43.4716 30.4151C42.9493 30.8676 42.5793 31.2101 42.1627 31.4816L43.2548 33.1571ZM74 24.2842C74 23.794 73.7796 23.3953 73.4647 23.1154C73.1854 22.8672 72.8439 22.72 72.5462 22.6211C71.9538 22.4243 71.1472 22.3004 70.3092 22.1741C68.5639 21.911 66.2996 21.589 63.8899 20.6713L63.1781 22.5404C65.8169 23.5452 68.2856 23.8916 70.0111 24.1517C70.9086 24.287 71.5219 24.3883 71.9156 24.5191C72.1109 24.584 72.1539 24.6262 72.136 24.6102C72.0823 24.5626 72 24.4391 72 24.2842H74ZM63.8899 20.6713C61.4584 19.7454 59.9163 19.0283 58.3664 18.5844C56.7412 18.1189 55.0594 17.9275 52.1748 17.9275V19.9275C54.9697 19.9275 56.4433 20.114 57.8157 20.5071C59.2633 20.9217 60.5611 21.5438 63.1781 22.5404L63.8899 20.6713ZM52.0554 30.0981C55.7701 30.5446 60.6746 29.5411 63.9878 27.8537L63.0801 26.0715C60.0827 27.5981 55.575 28.5067 52.2941 28.1124L52.0554 30.0981ZM63.9878 27.8537C64.6013 27.5412 65.455 27.2944 66.4565 27.086C67.4497 26.8793 68.5075 26.7256 69.5222 26.5683C70.5063 26.4158 71.4864 26.2551 72.2236 26.0322C72.5873 25.9222 72.9745 25.7739 73.2893 25.5523C73.6098 25.3267 74 24.914 74 24.2842H72C72 23.9998 72.1863 23.8829 72.1382 23.9167C72.0847 23.9544 71.9389 24.0288 71.6448 24.1178C71.0663 24.2927 70.2308 24.4346 69.2158 24.5919C68.2314 24.7445 67.1063 24.9079 66.0491 25.1279C65.0002 25.3462 63.936 25.6356 63.0801 26.0715L63.9878 27.8537Z" fill="#BFDE42"/>
</svg>
