<svg width="32" height="47" viewBox="0 0 32 47" fill="none" xmlns="http://www.w3.org/2000/svg">
<path d="M1 9.63014C6.70262 12.4394 24.3008 12.3303 31.5 9.63014C24.2234 6.84816 7.42513 7.42092 1 9.63014Z" fill="#917C69"/>
<path d="M1 9.63014V42.2773C6.70262 45.0865 20.7863 49.0195 31.5 42.2773V9.63014C24.3008 12.3303 6.70262 12.4394 1 9.63014Z" fill="#917C69"/>
<path d="M1 9.63014L0.934969 9.44101L0.8 9.48741V9.63014H1ZM1 42.2773H0.8V42.4017L0.911618 42.4567L1 42.2773ZM31.5 42.2773L31.6065 42.4466L31.7 42.3877V42.2773H31.5ZM31.5 9.63014H31.7V9.49248L31.5714 9.44332L31.5 9.63014ZM0.8 9.63014V42.2773H1.2V9.63014H0.8ZM0.911618 42.4567C3.78333 43.8714 8.75379 45.5643 14.3533 46.0583C19.953 46.5523 26.2006 45.8485 31.6065 42.4466L31.3935 42.108C26.0857 45.4482 19.9346 46.1491 14.3884 45.6598C8.84198 45.1706 3.91929 43.4925 1.08838 42.0979L0.911618 42.4567ZM31.7 42.2773V9.63014H31.3V42.2773H31.7ZM0.911618 9.80955C2.36701 10.5265 4.5622 11.0498 7.13254 11.3932C9.70755 11.7373 12.6761 11.903 15.6892 11.8962C21.708 11.8825 27.9364 11.1803 31.5702 9.8174L31.4298 9.44288C27.8644 10.7801 21.6941 11.4825 15.6883 11.4962C12.6891 11.503 9.73899 11.3379 7.18551 10.9968C4.62736 10.6549 2.4843 10.1384 1.08838 9.45073L0.911618 9.80955ZM1.06503 9.81927C4.24693 8.72521 10.0271 8.02995 15.9331 7.95843C21.8407 7.88689 27.8274 8.44018 31.4286 9.81695L31.5714 9.44332C27.8959 8.03812 21.8452 7.4868 15.9283 7.55846C10.0097 7.63013 4.1782 8.32585 0.934969 9.44101L1.06503 9.81927Z" fill="#291F16"/>
<path d="M3.94165 10.9393C4.87058 11.1848 4.87058 11.1848 7.42515 11.5635V44.2901C6.49622 44.0774 5.10282 43.5865 3.94166 43.1773L3.94165 10.9393Z" fill="#D5C4AB" stroke="#DACBB8" stroke-width="0.4"/>
<path d="M12 9.77363C13.0105 10.3315 16.2253 11.1125 21 9.77363V7.76536C19.5474 8.06288 15.7137 8.47941 12 7.76536V9.77363Z" fill="#917C69"/>
<path d="M12 5.7571V7.76536C15.7137 8.47941 19.5474 8.06288 21 7.76536V5.7571C19.5474 6.05462 15.7137 6.47115 12 5.7571Z" fill="#917C69"/>
<path d="M12 3.80462V5.7571C15.7137 6.47115 19.5474 6.05462 21 5.7571V3.80462C19.5474 4.10214 15.7137 4.51867 12 3.80462Z" fill="#917C69"/>
<path d="M21 1.85215C19.5474 2.14967 15.7137 2.5662 12 1.85215V3.80462C15.7137 4.51867 19.5474 4.10214 21 3.80462V1.85215Z" fill="#917C69"/>
<path d="M21 1.85215C19.5474 2.14967 15.7137 2.5662 12 1.85215C13.6421 0.810826 18.1579 0.624874 21 1.85215Z" fill="#917C69"/>
<path d="M12 9.77363C13.0105 10.3315 16.2253 11.1125 21 9.77363M12 9.77363V5.7571M12 9.77363V7.76536M21 9.77363V5.7571M21 9.77363V7.76536M21 1.85215C19.5474 2.14967 15.7137 2.5662 12 1.85215M21 1.85215C18.1579 0.624874 13.6421 0.810826 12 1.85215M21 1.85215V5.7571M21 1.85215V3.80462M12 1.85215V5.7571M12 1.85215V3.80462M12 5.7571C15.7137 6.47115 19.5474 6.05462 21 5.7571M12 5.7571V7.76536M12 5.7571V3.80462M21 5.7571V7.76536M21 5.7571V3.80462M21 7.76536C19.5474 8.06288 15.7137 8.47941 12 7.76536M21 3.80462C19.5474 4.10214 15.7137 4.51867 12 3.80462" stroke="#291F16" stroke-width="0.4"/>
</svg>
