<svg width="80" height="50" viewBox="0 0 80 50" fill="none" xmlns="http://www.w3.org/2000/svg">
<path d="M72 5C66.9515 9.28538 69.9297 10.9472 68.2136 13.0351C66.7668 14.7953 63.7961 14.1064 61.9029 18.9275C58.7476 21.6059 59.8973 22.1465 58.7476 24.2842C58.7476 24.2842 58.7476 26.9626 61.9029 29.641C63.327 30.8498 63.165 34.9977 66.9635 37.1404C70.7619 39.2831 68.2136 40.8901 70.7379 44.6398C71.5334 45.8216 64.4272 44.0187 58.7476 40.3544C57.3459 38.8671 53.699 34.9977 46.8011 34.9977C44.2194 34.9977 42.3398 35.0456 37.2913 32.3193C35.3296 31.0408 34.1468 28.3455 27.8252 29.1053C24.3274 29.5257 19.6214 28.5696 16.466 26.9626C13.5274 25.4659 7 25.6654 7 24.2842C7 22.9426 11.4175 23.5284 16.466 21.6059C21.5146 19.6834 22.1456 18.9275 27.8252 18.9275C31.0545 18.9275 32.6446 18.5317 34.767 17.8562C39.8155 15.7363 43.4698 13.8809 47.528 13.7466C49.9126 13.5708 57.2461 11.1134 58.7476 9.57226C61.2718 7.14269 67.2785 6.82533 72 5Z" fill="#42B4CA"/>
<path d="M58.7476 24.2842H57.7476V24.0324L57.8669 23.8106L58.7476 24.2842ZM72 5L71.6394 4.06728C72.0945 3.89132 72.6102 4.06955 72.8596 4.48899C73.1089 4.90843 73.0191 5.4466 72.6471 5.76238L72 5ZM70.7379 44.6398L69.9083 45.1982L70.7379 44.6398ZM68.2136 13.0351L68.9861 13.6701L68.2136 13.0351ZM61.9029 18.9275L62.8337 19.293L62.7418 19.5271L62.55 19.6899L61.9029 18.9275ZM61.9029 29.641L62.55 28.8786L61.9029 29.641ZM58.7476 9.57226L58.0313 8.87443L58.0425 8.86291L58.0541 8.85176L58.7476 9.57226ZM47.528 13.7466L47.6015 14.7439L47.5813 14.7453L47.5611 14.746L47.528 13.7466ZM34.767 17.8562L35.1541 18.7782L35.1129 18.7955L35.0703 18.809L34.767 17.8562ZM58.7476 40.3544L58.2054 41.1947L58.1033 41.1288L58.0198 41.0403L58.7476 40.3544ZM37.2913 32.3193L36.8161 33.1992L36.7798 33.1796L36.7452 33.1571L37.2913 32.3193ZM27.8252 29.1053L27.9446 30.0981L27.8252 29.1053ZM16.466 26.9626L16.9199 26.0715L16.466 26.9626ZM72.6471 5.76238C70.2672 7.78258 69.9272 9.04296 69.8537 9.92465C69.8326 10.1776 69.8326 10.4226 69.8346 10.698C69.8365 10.9594 69.8407 11.2703 69.8161 11.5806C69.7628 12.2519 69.573 12.956 68.9861 13.6701L67.4411 12.4001C67.7122 12.0702 67.7937 11.7836 67.8224 11.4222C67.8388 11.2161 67.8367 11.0001 67.8347 10.7123C67.8327 10.4384 67.8312 10.1116 67.8606 9.75854C67.9891 8.216 68.6843 6.5028 71.3529 4.23762L72.6471 5.76238ZM68.9861 13.6701C68.4939 14.2689 67.8918 14.6315 67.3341 14.9131C66.7041 15.2312 66.2923 15.3819 65.7147 15.7058C64.7464 16.2486 63.6921 17.1072 62.8337 19.293L60.9721 18.562C62.007 15.9267 63.3846 14.7192 64.7366 13.9612C65.3192 13.6346 66.0397 13.3262 66.4327 13.1278C66.8981 12.8928 67.2099 12.6814 67.4411 12.4001L68.9861 13.6701ZM62.55 19.6899C61.0432 20.969 60.6894 21.6321 60.5199 22.1306C60.4075 22.4611 60.3795 22.6791 60.2491 23.1759C60.131 23.6259 59.9616 24.1381 59.6283 24.7579L57.8669 23.8106C58.1084 23.3615 58.2264 23.0045 58.3147 22.6682C58.3907 22.3787 58.4881 21.8933 58.6264 21.4866C58.9583 20.5107 59.6073 19.5644 61.2558 18.1651L62.55 19.6899ZM61.2558 30.4033C59.5468 28.9527 58.6633 27.475 58.2112 26.3237C57.9863 25.751 57.8704 25.2649 57.8107 24.9105C57.7809 24.7334 57.7651 24.5889 57.7568 24.4828C57.7526 24.4298 57.7503 24.3863 57.7491 24.3529C57.7484 24.3363 57.7481 24.3222 57.7478 24.3107C57.7477 24.305 57.7477 24.2999 57.7476 24.2955C57.7476 24.2932 57.7476 24.2912 57.7476 24.2893C57.7476 24.2884 57.7476 24.2875 57.7476 24.2867C57.7476 24.2862 57.7476 24.2856 57.7476 24.2854C57.7476 24.2848 57.7476 24.2842 58.7476 24.2842C59.7476 24.2842 59.7476 24.2837 59.7476 24.2831C59.7476 24.2829 59.7476 24.2824 59.7476 24.282C59.7476 24.2814 59.7476 24.2807 59.7476 24.2801C59.7476 24.2789 59.7475 24.2778 59.7475 24.2769C59.7475 24.2751 59.7475 24.2739 59.7475 24.2733C59.7475 24.2721 59.7475 24.2734 59.7476 24.277C59.7479 24.2842 59.7487 24.3008 59.7507 24.3262C59.7547 24.3771 59.7635 24.4629 59.783 24.5786C59.822 24.8101 59.9033 25.161 60.0728 25.5927C60.4095 26.4502 61.1037 27.6509 62.55 28.8786L61.2558 30.4033ZM69.9083 45.1982C68.4919 43.0943 68.4833 41.5042 68.3374 40.4209C68.2679 39.9049 68.1772 39.5617 67.9644 39.237C67.7467 38.905 67.3385 38.5001 66.4721 38.0114L67.4548 36.2694C68.4876 36.852 69.1853 37.4515 69.637 38.1406C70.0936 38.837 70.2357 39.5317 70.3195 40.154C70.4802 41.3473 70.4595 42.4356 71.5674 44.0814L69.9083 45.1982ZM66.4721 38.0114C64.2973 36.7845 63.2734 34.9793 62.621 33.4281C62.4593 33.0436 62.3186 32.6701 62.1915 32.3298C62.0619 31.9826 61.95 31.6793 61.8359 31.4028C61.5957 30.8209 61.4132 30.537 61.2558 30.4033L62.55 28.8786C63.1047 29.3494 63.4359 30.0372 63.6846 30.6399C63.815 30.9558 63.9412 31.2981 64.0652 31.6304C64.1918 31.9695 64.3202 32.3093 64.4646 32.6528C65.0369 34.0135 65.8312 35.3535 67.4548 36.2694L66.4721 38.0114ZM58.0541 8.85176C59.5355 7.426 61.9327 6.69228 64.3037 6.09029C66.7835 5.46071 69.3535 4.95101 71.6394 4.06728L72.3606 5.93272C69.925 6.87432 67.1309 7.43597 64.7959 8.02879C62.3522 8.64921 60.484 9.28895 59.441 10.2928L58.0541 8.85176ZM47.4545 12.7493C48.5004 12.6722 50.819 12.0567 53.1324 11.2298C54.2703 10.823 55.3679 10.379 56.2632 9.94866C57.1973 9.49967 57.7912 9.12092 58.0313 8.87443L59.4638 10.2701C58.9532 10.7942 58.0673 11.3005 57.1296 11.7513C56.153 12.2206 54.9867 12.6909 53.8055 13.1131C51.4806 13.9441 48.9402 14.6452 47.6015 14.7439L47.4545 12.7493ZM34.3798 16.9341C39.3145 14.8621 43.2001 12.8893 47.4949 12.7471L47.5611 14.746C43.7395 14.8726 40.3165 16.6105 35.1541 18.7782L34.3798 16.9341ZM27.8252 17.9275C30.9309 17.9275 32.4175 17.5546 34.4637 16.9033L35.0703 18.809C32.8718 19.5089 31.1782 19.9275 27.8252 19.9275V17.9275ZM71.5674 44.0814C71.6736 44.2391 71.8622 44.5797 71.7789 45.0148C71.6841 45.5097 71.3182 45.7591 71.0854 45.8612C70.8622 45.959 70.6343 45.9865 70.4688 45.9956C70.2888 46.0056 70.0972 45.9976 69.9057 45.9797C69.1563 45.9097 68.0852 45.6555 66.8672 45.2671C64.4106 44.484 61.1313 43.0824 58.2054 41.1947L59.2897 39.5141C62.0435 41.2908 65.157 42.6227 67.4747 43.3616C68.6437 43.7344 69.555 43.9383 70.0917 43.9884C70.2217 44.0006 70.3082 44.0015 70.3581 43.9987C70.4226 43.9951 70.3766 43.9882 70.2827 44.0294C70.1791 44.0747 69.8899 44.2453 69.8146 44.6386C69.7507 44.972 69.9016 45.1882 69.9083 45.1982L71.5674 44.0814ZM58.0198 41.0403C56.6626 39.6002 53.2669 35.9977 46.8011 35.9977V33.9977C54.1311 33.9977 58.0291 38.1341 59.4753 39.6686L58.0198 41.0403ZM46.8011 35.9977C45.52 35.9977 44.2961 36.0132 42.7462 35.6552C41.2033 35.2989 39.3838 34.5858 36.8161 33.1992L37.7664 31.4394C40.2473 32.7791 41.8918 33.4052 43.1963 33.7065C44.4938 34.0062 45.5005 33.9977 46.8011 33.9977V35.9977ZM36.7452 33.1571C36.1809 32.7893 35.6675 32.3154 35.2188 31.9267C34.747 31.518 34.2806 31.1401 33.708 30.8223C32.6004 30.2077 30.9461 29.7374 27.9446 30.0981L27.7059 28.1124C31.0259 27.7134 33.1239 28.2109 34.6784 29.0735C35.4369 29.4944 36.0292 29.9826 36.5284 30.4151C37.0507 30.8676 37.4207 31.2101 37.8373 31.4816L36.7452 33.1571ZM6 24.2842C6 23.794 6.22038 23.3953 6.53532 23.1154C6.81455 22.8672 7.15607 22.72 7.45384 22.6211C8.04619 22.4243 8.85275 22.3004 9.69076 22.1741C11.4361 21.911 13.7004 21.589 16.1101 20.6713L16.8219 22.5404C14.1831 23.5452 11.7144 23.8916 9.98885 24.1517C9.09142 24.287 8.47808 24.3883 8.08438 24.5191C7.88913 24.584 7.8461 24.6262 7.86404 24.6102C7.91766 24.5626 8 24.4391 8 24.2842H6ZM16.1101 20.6713C18.5416 19.7454 20.0837 19.0283 21.6336 18.5844C23.2588 18.1189 24.9406 17.9275 27.8252 17.9275V19.9275C25.0303 19.9275 23.5567 20.114 22.1843 20.5071C20.7367 20.9217 19.4389 21.5438 16.8219 22.5404L16.1101 20.6713ZM27.9446 30.0981C24.2299 30.5446 19.3254 29.5411 16.0122 27.8537L16.9199 26.0715C19.9173 27.5981 24.425 28.5067 27.7059 28.1124L27.9446 30.0981ZM16.0122 27.8537C15.3987 27.5412 14.545 27.2944 13.5435 27.086C12.5503 26.8793 11.4925 26.7256 10.4778 26.5683C9.49369 26.4158 8.51364 26.2551 7.77639 26.0322C7.41273 25.9222 7.02553 25.7739 6.71067 25.5523C6.39024 25.3267 6 24.914 6 24.2842H8C8 23.9998 7.81374 23.8829 7.86176 23.9167C7.91534 23.9544 8.06105 24.0288 8.35524 24.1178C8.9337 24.2927 9.76916 24.4346 10.7842 24.5919C11.7686 24.7445 12.8937 24.9079 13.9509 25.1279C14.9998 25.3462 16.064 25.6356 16.9199 26.0715L16.0122 27.8537Z" fill="#BFDE42"/>
</svg>
